<svg width="228" height="110" viewBox="0 0 228 110" fill="none" xmlns="http://www.w3.org/2000/svg">
<path d="M139.35 32.5964C138.628 30.9856 138.461 29.7636 137.739 29.2637C133.296 25.8199 129.13 22.3761 127.241 16.7106C126.741 15.1553 124.742 14.1 123.52 12.7669C122.02 11.1561 120.187 9.65641 119.243 7.76789C118.521 6.32373 118.299 3.9353 119.021 2.65777C119.743 1.43579 122.131 0.213791 123.52 0.491514C128.908 1.65795 134.407 2.8244 139.406 5.04619C149.904 9.60085 159.957 15.0998 170.511 19.5989C180.342 23.8203 190.562 27.0419 200.505 31.0411C207.67 33.9294 214.613 37.3732 221.667 40.6504C223 41.2614 224.222 42.2056 225.278 43.1499C228.721 46.2048 228.61 50.9261 224.833 53.5367C222.723 55.0364 220.39 56.1473 218.057 57.3138C209.503 61.6463 200.894 65.9787 192.284 70.1446C180.62 75.8101 169.4 82.1422 159.18 90.1962C150.403 97.0837 140.739 102.472 130.63 107.082C128.963 107.859 127.297 108.637 125.519 109.192C120.743 110.637 117.41 107.804 117.965 102.971C118.021 102.583 118.076 102.194 118.243 101.916C120.354 98.3057 117.077 93.64 120.465 90.3073C123.131 87.7522 125.853 85.2527 128.519 82.6977C130.574 80.7536 132.518 78.6985 135.518 75.699C132.851 75.2547 131.518 74.6992 130.296 74.8659C120.798 76.3656 111.189 77.1987 101.968 79.7538C86.2493 84.0307 70.3636 87.0302 54.089 88.6965C41.9802 89.9185 29.9826 92.1958 17.8739 93.6955C14.319 94.1399 10.5419 93.8622 6.93151 93.3623C4.04319 92.9179 2.3213 89.9185 3.87655 87.5301C5.76507 84.5862 5.26517 82.1422 4.70972 79.1984C1.48813 62.8127 0.488326 46.2048 0.821594 29.5414C0.988229 21.6541 4.59863 18.2658 12.486 17.8215C15.041 17.6548 17.6516 17.7659 20.2622 17.9881C53.7557 20.8764 87.3047 23.5981 120.52 28.8193C126.575 29.8747 132.629 31.2633 139.35 32.5964ZM12.2638 28.8749C12.2638 34.5404 12.1528 38.9284 12.3194 43.2609C12.486 47.7045 13.097 52.0926 13.3192 56.5361C13.5413 61.313 13.6524 66.1454 13.5969 70.9778C13.5413 75.2547 13.2081 79.4761 13.0414 84.1418C15.5965 83.9752 17.4294 84.1418 19.2069 83.753C32.9264 80.4759 46.8681 79.0317 60.8099 77.1432C71.7522 75.6435 82.9166 73.9216 93.359 70.4778C112.3 64.2013 132.129 64.9789 151.348 61.7018C153.625 61.313 155.736 62.1461 157.013 64.3124C158.346 66.5342 157.958 68.756 156.458 70.4778C153.07 74.366 149.293 77.9764 145.849 81.7534C144.849 82.8643 142.683 83.6419 144.127 86.5858C146.793 85.0861 149.515 83.9752 151.737 82.2533C164.512 72.533 178.731 65.5344 193.173 58.7579C198.172 56.3695 203.171 53.9255 208.059 51.3149C209.503 50.5373 210.614 49.1487 212.558 47.4268C207.615 45.1495 203.671 43.2054 199.56 41.4835C184.23 35.1514 168.122 30.5968 153.847 21.7652C152.57 20.9875 151.237 20.321 149.848 19.8766C148.126 19.2656 146.349 18.9324 143.294 18.2103C148.182 24.3202 152.181 29.1526 155.958 34.1516C157.235 35.8735 158.457 37.8731 158.902 39.9838C159.957 44.594 156.847 47.4268 151.959 46.5381C150.903 46.3714 149.793 45.5938 148.848 45.7604C143.127 47.0935 137.85 45.2606 132.518 43.9275C128.908 43.0388 125.297 42.2612 121.687 41.6502C91.7483 36.429 61.5319 33.8184 31.3712 30.6523C25.4279 30.0969 19.5401 29.597 12.2638 28.8749Z" fill="black"/>
</svg>
